#!OML:ASF H:\Terrain\Patient Classification 1\Animal2\Wednesday\Animal2.ASF
:FULLY-SPECIFIED
:DEGREES
4673
root 11.2673 14.8949 -19.3724 8.25304 -12.9388 2.19028
lowerback 16.3503 -1.57253 3.97773
upperback 4.0045 -1.50747 -1.30044
thorax -5.01891 -0.791383 -3.32747
lowerneck -7.58626 -1.10678 12.3917
upperneck 3.69035 -2.4597 -4.6592
head 2.11593 -1.19973 -3.4925
rclavicle 1.19271e-015 9.44227e-015
rhumerus -4.70072 16.77 -59.8421
rradius 122.426
rwrist 2.90741
rhand 0.536031 35.2451
rfingers 7.12502
rthumb 26.1037 7.01915
lclavicle 1.19271e-015 9.44227e-015
lhumerus -394.875 14.8528 396.781
lradius 15.6354
lwrist -13.8197
lhand 0.290728 31.3922
lfingers 7.12502
lthumb 25.8688 59.6526
rfemur -40.4374 13.5839 -15.665
rtibia 53.3425
rfoot -34.5377 -2.62883
rtoes -36.4067
lfemur -21.7572 6.1421 7.17823
ltibia 47.3235
lfoot -29.6136 5.41674
ltoes -48.9892
4674
root 11.2665 14.8906 -19.3813 8.43538 -13.3713 2.34865
lowerback 16.5597 -1.60129 3.62202
upperback 3.86741 -1.58176 -1.0826
thorax -5.27005 -0.829906 -2.87349
lowerneck -7.40905 -0.931415 12.2616
upperneck 3.50975 -2.18194 -4.82326
head 2.05612 -1.07201 -3.50966
rclavicle -8.00108e-015 -1.66979e-014
rhumerus -6.09656 17.7419 -60.6719
rradius 124.399
rwrist 2.34675
rhand 0.690288 35.263
rfingers 7.12502
rthumb 26.2514 7.05889
lclavicle -8.00108e-015 -1.66979e-014
lhumerus -394.332 12.9725 398.58
lradius 16.108
lwrist -11.5972
lhand 0.00588306 28.7855
lfingers 7.12502
lthumb 25.596 57.0855
rfemur -40.9771 13.6483 -16.009
rtibia 53.373
rfoot -34.4856 -2.67935
rtoes -36.7269
lfemur -21.776 6.33761 6.94488
ltibia 47.3335
lfoot -29.6627 5.88671
ltoes -49.2494
4675
root 11.2688 14.8911 -19.3914 8.4972 -13.7714 2.67404
lowerback 16.8014 -1.69567 3.2225
upperback 3.74678 -1.75743 -0.981034
thorax -5.52881 -0.915978 -2.49559
lowerneck -7.07832 -0.745051 12.2099
upperneck 3.39402 -1.87689 -5.01157
head 1.99273 -0.926372 -3.54533
rclavicle -2.0276e-014 4.37326e-015
rhumerus -7.5061 18.6138 -61.7199
rradius 126.035
rwrist 1.1676
rhand 1.88467 35.5574
rfingers 7.12502
rthumb 27.3943 7.52868
lclavicle -2.0276e-014 4.37326e-015
lhumerus -393.977 11.5726 399.901
lradius 16.8326
lwrist -9.46175
lhand -0.115084 27.0035
lfingers 7.12502
lthumb 25.4801 55.3201
rfemur -41.378 13.5575 -16.4582
rtibia 53.3715
rfoot -34.4073 -2.78514
rtoes -37.2866
lfemur -21.725 6.43345 6.51017
ltibia 47.3258
lfoot -29.6978 6.54508
ltoes -49.7885
4676
root 11.2716 14.8899 -19.4036 8.62296 -14.2279 2.82403
lowerback 16.9643 -1.75235 3.04294
upperback 3.69366 -1.85117 -0.883329
thorax -5.6713 -0.96145 -2.26551
lowerneck -6.94696 -0.559287 12.1684
upperneck 3.27369 -1.601 -5.18148
head 1.9581 -0.796345 -3.5802
rclavicle -6.90777e-014 1.70955e-014
rhumerus -8.9817 19.2645 -62.7522
rradius 127.45
rwrist -0.509428
rhand 3.05689 35.7003
rfingers 7.12502
rthumb 28.5149 7.85414
lclavicle -6.90777e-014 1.70955e-014
lhumerus -393.449 10.5315 401.076
lradius 17.5194
lwrist -7.70843
lhand -0.71563 25.3783
lfingers 7.12502
lthumb 24.9047 53.7758
rfemur -41.9015 13.5335 -16.7457
rtibia 53.3191
rfoot -34.2554 -2.71405
rtoes -37.4831
lfemur -21.6834 6.63555 6.29412
ltibia 47.3082
lfoot -29.7158 6.53185
ltoes -49.4554
4677
root 11.2729 14.8936 -19.4156 8.79664 -14.6243 2.87541
lowerback 17.0969 -1.82444 2.95804
upperback 3.77058 -1.94928 -0.751928
thorax -5.65945 -1.00656 -2.05412
lowerneck -7.35541 -0.309461 12.1611
upperneck 3.34454 -1.30932 -5.36348
head 2.06936 -0.659454 -3.62954
rclavicle -1.32192e-014 1.39149e-014
rhumerus -10.2397 19.7504 -63.7369
rradius 128.751
rwrist -1.96536
rhand 4.26291 35.4089
rfingers 7.12502
rthumb 29.6667 7.76181
lclavicle -1.32192e-014 1.39149e-014
lhumerus -392.602 9.59342 402.428
lradius 18.0247
lwrist -6.14049
lhand -2.37657 23.3785
lfingers 7.12502
lthumb 23.3122 51.9871
rfemur -42.4183 13.6608 -16.9671
rtibia 53.2391
rfoot -34.1644 -2.30225
rtoes -36.8626
lfemur -21.6851 6.83253 6.18783
ltibia 47.2792
lfoot -29.77 6.37244
ltoes -49.1386
4678
root 11.272 14.9009 -19.4275 8.98394 -14.9268 2.76655
lowerback 17.2263 -1.9513 2.9887
upperback 3.85516 -2.09389 -0.543003
thorax -5.64031 -1.07544 -1.8155
lowerneck -7.47316 -0.0934538 12.1338
upperneck 3.28249 -1.02321 -5.57564
head 2.09388 -0.526865 -3.68112
rclavicle -7.05686e-015 -3.27995e-014
rhumerus -11.5827 20.3956 -64.6873
rradius 129.897
rwrist -3.45268
rhand 5.77414 34.334
rfingers 7.12502
rthumb 31.1081 6.95322
lclavicle -7.05686e-015 -3.27995e-014
lhumerus -391.908 7.96036 404.066
lradius 19.0364
lwrist -3.45776
lhand -4.15609 22.1236
lfingers 7.12502
lthumb 21.6041 50.9384
rfemur -42.8176 13.829 -16.9797
rtibia 53.1732
rfoot -34.0385 -2.30502
rtoes -36.8851
lfemur -21.6726 6.98866 6.25868
ltibia 47.2328
lfoot -29.5766 6.6247
ltoes -49.54
4679
root 11.271 14.9033 -19.4422 9.15355 -15.3045 2.69954
lowerback 17.3634 -2.07208 2.92406
upperback 3.85008 -2.24582 -0.337113
thorax -5.71714 -1.14854 -1.52237
lowerneck -6.93537 0.0854405 12.1177
upperneck 2.89684 -0.707265 -5.84874
head 1.91882 -0.380154 -3.74626
rclavicle -4.57205e-014 3.16068e-014
rhumerus -13.3244 21.3713 -65.6379
rradius 130.887
rwrist -5.16062
rhand 6.43747 33.4609
rfingers 7.12502
rthumb 31.7401 6.20312
lclavicle -4.57205e-014 3.16068e-014
lhumerus -391.493 6.5963 405.432
lradius 20.3851
lwrist -0.521568
lhand -5.57191 22.387
lfingers 7.12502
lthumb 20.2438 51.352
rfemur -43.264 13.9583 -17.0372
rtibia 53.1202
rfoot -33.7956 -2.56573
rtoes -37.501
lfemur -21.6419 7.22797 6.28613
ltibia 47.1566
lfoot -29.3417 7.06629
ltoes -49.8755
4680
root 11.2727 14.9096 -19.4549 9.18614 -15.6496 2.90765
lowerback 17.5146 -2.23811 2.75969
upperback 3.96086 -2.48999 -0.340448
thorax -5.6855 -1.26409 -1.37587
lowerneck -6.60931 0.362255 12.4268
upperneck 2.43851 -0.316336 -6.18346
head 1.76367 -0.197232 -3.88251
rclavicle -2.50469e-014 1.86858e-014
rhumerus -14.9182 21.8224 -66.8146
rradius 131.561
rwrist -6.52812
rhand 7.09714 33.6784
rfingers 7.12502
rthumb 32.3682 6.54695
lclavicle -2.50469e-014 1.86858e-014
lhumerus -390.621 5.83605 406.329
lradius 21.269
lwrist 1.80296
lhand -7.66538 23.1035
lfingers 7.12502
lthumb 18.2308 52.2691
rfemur -43.5953 14.047 -17.3764
rtibia 53.0467
rfoot -33.5303 -2.45381
rtoes -37.7116
lfemur -21.566 7.36391 6.00578
ltibia 47.0554
lfoot -29.4817 7.05295
ltoes -49.4152
4681
root 11.2776 14.9198 -19.4634 9.15632 -15.8281 3.10659
lowerback 17.6411 -2.46655 2.76189
upperback 4.1858 -2.79022 -0.3728
thorax -5.5282 -1.4074 -1.34469
lowerneck -6.80129 0.651626 12.7422
upperneck 2.32483 0.0299807 -6.52064
head 1.79343 -0.0356781 -4.02615
rclavicle 1.58034e-014 -2.5842e-014
rhumerus -16.1726 21.5718 -67.9561
rradius 131.843
rwrist -7.64645
rhand 8.5427 34.4077
rfingers 7.12502
rthumb 33.7429 7.56726
lclavicle 1.58034e-014 -2.5842e-014
lhumerus -389.505 4.72678 407.283
lradius 22.1254
lwrist 4.15642
lhand -10.4522 23.992
lfingers 7.12502
lthumb 15.5482 53.3869
rfemur -43.7137 14.1203 -17.66
rtibia 52.9468
rfoot -33.3769 -2.25385
rtoes -37.7071
lfemur -21.4664 7.34561 5.73781
ltibia 46.9574
lfoot -29.5879 6.96559
ltoes -49.1496
4682
root 11.2818 14.9227 -19.4766 9.22322 -15.9628 3.14039
lowerback 17.806 -2.66081 2.80182
upperback 4.28871 -3.02196 -0.198878
thorax -5.50919 -1.51907 -1.12649
lowerneck -6.7981 0.848157 12.7291
upperneck 2.32805 0.30811 -6.84807
head 1.82168 0.094514 -4.11593
rclavicle 4.02539e-014 -2.78299e-014
rhumerus -17.6516 21.5165 -68.8916
rradius 132.09
rwrist -8.73148
rhand 9.65882 34.8214
rfingers 7.12502
rthumb 34.8027 8.21953
lclavicle 4.02539e-014 -2.78299e-014
lhumerus -388.716 3.97011 408.406
lradius 23.2512
lwrist 5.99403
lhand -13.0547 25.4307
lfingers 7.12502
lthumb 13.0405 55.003
rfemur -43.8992 14.193 -17.7804
rtibia 52.8241
rfoot -33.3694 -2.11003
rtoes -37.4434
lfemur -21.4934 7.44006 5.67019
ltibia 46.8842
lfoot -29.3582 7.57979
ltoes -49.8745
4683
root 11.2839 14.9247 -19.4949 9.32739 -16.086 3.08942
lowerback 18.0558 -2.83922 2.81532
upperback 4.30339 -3.22595 0.079075
thorax -5.61963 -1.61796 -0.782234
lowerneck -6.32245 1.01697 12.6748
upperneck 2.0221 0.608742 -7.25542
head 1.68499 0.235463 -4.22188
rclavicle -2.14687e-014 7.55382e-015
rhumerus -19.3592 21.7191 -69.7385
rradius 132.426
rwrist -9.69031
rhand 10.4403 34.8006
rfingers 7.12502
rthumb 35.5438 8.37325
lclavicle -2.14687e-014 7.55382e-015
lhumerus -388.005 3.67364 409.524
lradius 24.2829
lwrist 7.49575
lhand -15.6259 26.7983
lfingers 7.12502
lthumb 10.561 56.513
rfemur -44.1148 14.2971 -17.8064
rtibia 52.7039
rfoot -33.4011 -2.10004
rtoes -37.1057
lfemur -21.5748 7.57164 5.72473
ltibia 46.819
lfoot -29.1258 7.82006
ltoes -50.0546
4684
root 11.285 14.9315 -19.5092 9.41501 -16.2583 3.01703
lowerback 18.2616 -3.05895 2.84394
upperback 4.41084 -3.48623 0.324061
thorax -5.60956 -1.74329 -0.471769
lowerneck -6.01243 1.26672 12.6876
upperneck 1.71232 0.989703 -7.71619
head 1.58421 0.414861 -4.35375
rclavicle -1.82882e-014 1.19271e-014
rhumerus -20.6644 21.9216 -70.5693
rradius 132.479
rwrist -10.295
rhand 10.891 34.8599
rfingers 7.12502
rthumb 35.9709 8.53623
lclavicle -1.82882e-014 1.19271e-014
lhumerus -387.026 3.3347 410.493
lradius 25.023
lwrist 9.46163
lhand -18.4312 27.6997
lfingers 7.12502
lthumb 7.85415 57.5338
rfemur -44.2798 14.4541 -17.7876
rtibia 52.5613
rfoot -33.2934 -2.51763
rtoes -37.4374
lfemur -21.5527 7.67152 5.79749
ltibia 46.7453
lfoot -29.0459 7.42116
ltoes -49.4822
4685
root 11.2852 14.9393 -19.5177 9.47241 -16.4738 3.07261
lowerback 18.4123 -3.2834 2.82738
upperback 4.58101 -3.77247 0.443688
thorax -5.50695 -1.88067 -0.267118
lowerneck -6.05443 1.58803 12.8286
upperneck 1.64341 1.4169 -8.14488
head 1.61947 0.617716 -4.49501
rclavicle -7.49418e-014 1.03368e-014
rhumerus -21.9037 21.7968 -71.4767
rradius 132.319
rwrist -10.8323
rhand 11.4552 34.9689
rfingers 7.12502
rthumb 36.5052 8.77812
lclavicle -7.49418e-014 1.03368e-014
lhumerus -385.857 3.08107 411.269
lradius 25.7188
lwrist 11.3576
lhand -20.923 28.9178
lfingers 7.12502
lthumb 5.44871 58.8277
rfemur -44.4377 14.5421 -17.908
rtibia 52.3781
rfoot -33.0185 -2.76553
rtoes -37.817
lfemur -21.484 7.79786 5.6968
ltibia 46.6506
lfoot -28.9816 7.39639
ltoes -49.3355
4686
root 11.2892 14.9479 -19.5256 9.43533 -16.6357 3.33438
lowerback 18.6303 -3.50508 2.68417
upperback 4.71893 -4.07872 0.505481
thorax -5.46894 -2.02713 -0.0427373
lowerneck -5.92794 1.84971 12.9396
upperneck 1.4549 1.77922 -8.44637
head 1.58586 0.792363 -4.59437
rclavicle 4.37326e-015 2.18663e-014
rhumerus -23.317 21.3545 -72.2859
rradius 132.208
rwrist -11.5948
rhand 12.884 34.4471
rfingers 7.12502
rthumb 37.8563 8.6089
lclavicle 4.37326e-015 2.18663e-014
lhumerus -384.798 2.73311 412.1
lradius 26.7094
lwrist 13.0522
lhand -23.1997 30.9489
lfingers 7.12502
lthumb 3.25029 60.9039
rfemur -44.5412 14.4716 -18.1928
rtibia 52.1867
rfoot -32.3495 -3.41073
rtoes -39.471
lfemur -21.4424 7.81035 5.35319
ltibia 46.5423
lfoot -28.9343 7.51975
ltoes -49.3413
4687
root 11.2943 14.9546 -19.5375 9.37383 -16.8725 3.76317
lowerback 18.8607 -3.66763 2.23333
upperback 4.86108 -4.36177 0.630462
thorax -5.40254 -2.16006 0.416936
lowerneck -5.78668 2.08544 12.9828
upperneck 1.19984 2.11423 -8.859
head 1.5297 0.950609 -4.71869
rclavicle 3.97569e-014 -3.65764e-014
rhumerus -24.4284 21.1061 -72.8472
rradius 131.945
rwrist -11.843
rhand 13.7808 33.9493
rfingers 7.12502
rthumb 38.7029 8.34483
lclavicle 3.97569e-014 -3.65764e-014
lhumerus -383.721 2.44595 413.027
lradius 27.7345
lwrist 14.7063
lhand -25.3054 32.9582
lfingers 7.12502
lthumb 1.21665 62.9345
rfemur -44.7549 14.3643 -18.6421
rtibia 52.0298
rfoot -31.457 -5.08434
rtoes -42.6125
lfemur -21.4114 7.77511 4.8185
ltibia 46.4533
lfoot -28.9284 7.30261
ltoes -48.7774
